# xmcd CD database file
#
# Track frame offsets:
#	150
#	19513
#	42180
#	60361
#	78487
#	93690
#	115354
#	131833
#	152349
#	176734
#	196332
#	217485
#	234532
#	255471
#	279400
#	301143
#	313585
#	323390
#	352294
#
# Disc length: 4703 seconds
#
# Revision: 0
# Processed by: cddbd v1.5.1PL2 Copyright (c) Steve Scherf et al.
# Submitted via: CDex 1.51
#
DISCID=0c125d13
DTITLE=Any - animation omnibus
DYEAR=2005
DGENRE=Anime
TTITLE0=交響詩篇 エウレカセブン - OP 1 - FLOW - DAYS
TTITLE1=交響詩篇 エウレカセブン - ED 1 - 高田 梢枝 - 秘密基地
TTITLE2=交響詩篇 エウレカセブン - OP 2 - HOME MADE 家族 - 少年ハート
TTITLE3=交響詩篇 エウレカセブン - ED 2 - 伊沢 麻未 - Fly Away
TTITLE4=交響詩篇 エウレカセブン - OP 3 - Bivattchee - 太陽の真ん中へ
TTITLE5=交響詩篇 エウレカセブン - ED 3 - HALCALI - Tip Taps Tip
TTITLE6=交響詩篇 エウレカセブン TR1:NEW WAVE - Game TM - FLOW - Realize
TTITLE7=ガンパレード・オーケストラ - OP 1 - 橋本 みゆき - Faze to love
TTITLE8=ガンパレード・オーケストラ - ED 1 - 美郷 あき - ふたりが忘れない
TTITLE9=BLOOD and - OP 1 - 高橋 瞳 - 青空のナミダ
TTITLE10=BLOOD and - ED 1 - 元 ちとせ - 語り継ぐこと
TTITLE11=フルメタル・パニック ! - OP 1 - 下川 みくに - tomorrow
TTITLE12=フルメタル・パニック ! - ED 1 - 下川 みくに - 枯れない花
TTITLE13=フルメタル・パニック ? ふもっふ - OP 1 - 下川 みくに - それが、愛でしょう
TTITLE14=フルメタル・パニック ? ふもっふ - ED 1 - 下川 みくに - 君に吹く風
TTITLE15=フルメタル・パニック ! The Second Raid - OP 1 - 下川 みくに - 南風
TTITLE16=フルメタル・パニック ! The Second Raid - ED 1 - 下川 みくに - もう一度君に会いたい
TTITLE17=撲殺天使ドクロちゃん - OP 1 - 千葉 紗子 - 撲殺天使ドクロちゃん
TTITLE18=曲目
EXTD=YEAR: 20050101
EXTT0=
EXTT1=
EXTT2=
EXTT3=
EXTT4=
EXTT5=
EXTT6=
EXTT7=
EXTT8=
EXTT9=
EXTT10=
EXTT11=
EXTT12=
EXTT13=
EXTT14=
EXTT15=
EXTT16=
EXTT17=
EXTT18=
PLAYORDER=
